<!--?xml version="1.0" standalone="no"?-->
              <svg id="sw-js-blob-svg" viewBox="0 0 100 100" xmlns="http://www.w3.org/2000/svg" version="1.1">
                    <defs> 
                        <linearGradient id="sw-gradient" x1="0" x2="1" y1="1" y2="0">
                            <stop id="stop1" stop-color="rgba(248, 117, 55, 1)" offset="0%"></stop>
                            <stop id="stop2" stop-color="rgba(251, 168, 31, 1)" offset="100%"></stop>
                        </linearGradient>
                    </defs>
                <path fill="url(#sw-gradient)" d="M20.8,-24.7C27.8,-18.9,34.9,-13.1,37.7,-5.5C40.4,2.2,38.7,11.8,33.5,17.9C28.3,24.1,19.5,26.8,11.5,28.1C3.6,29.4,-3.5,29.4,-11.8,28.2C-20,27,-29.4,24.7,-35.6,18.4C-41.7,12.1,-44.7,1.8,-41.7,-5.9C-38.6,-13.7,-29.5,-19.1,-21.6,-24.7C-13.6,-30.4,-6.8,-36.4,0,-36.4C6.9,-36.5,13.8,-30.5,20.8,-24.7Z" width="100%" height="100%" transform="translate(50 50)" stroke-width="0" style="transition: 0.3s;"></path>
              </svg>