<!--?xml version="1.0" standalone="no"?-->
              <svg id="sw-js-blob-svg" viewBox="0 0 100 100" xmlns="http://www.w3.org/2000/svg" version="1.1">
                    <defs> 
                        <linearGradient id="sw-gradient" x1="0" x2="1" y1="1" y2="0">
                            <stop id="stop1" stop-color="rgba(248, 117, 55, 1)" offset="0%"></stop>
                            <stop id="stop2" stop-color="rgba(251, 168, 31, 1)" offset="100%"></stop>
                        </linearGradient>
                    </defs>
                <path fill="url(#sw-gradient)" d="M14.5,-26.6C18.8,-22.5,22.5,-18.8,24.6,-14.4C26.8,-10.1,27.3,-5,29.9,1.5C32.5,8,37.1,16,36.5,23.1C35.9,30.2,30.2,36.3,23.3,39.9C16.3,43.6,8.2,44.8,1.9,41.4C-4.3,38.1,-8.7,30.3,-13.3,25.3C-18,20.4,-23,18.3,-28.4,14.5C-33.9,10.8,-39.8,5.4,-39.7,0.1C-39.5,-5.3,-33.4,-10.5,-28.1,-14.4C-22.8,-18.4,-18.2,-21,-13.6,-25C-9.1,-29,-4.5,-34.5,0.3,-34.9C5,-35.3,10.1,-30.8,14.5,-26.6Z" width="100%" height="100%" transform="translate(50 50)" stroke-width="0" style="transition: 0.3s;"></path>
              </svg>