<svg width="2100" height="1200" viewBox="0 0 2100 1200" fill="none" xmlns="http://www.w3.org/2000/svg">
<path d="M598 100C599.737 102.606 601.056 105.066 602.398 107.883C602.872 108.872 603.345 109.861 603.832 110.88C604.341 111.951 604.85 113.022 605.375 114.125C610.173 124.203 610.173 124.203 615.074 134.23C644.51 193.911 661.208 259.25 661.25 325.875C661.251 326.84 661.251 327.805 661.252 328.799C661.173 400.437 640.518 465.622 608.556 528.96C601.584 542.779 594.832 556.651 588.464 570.76C586.917 574.183 585.353 577.597 583.789 581.012C555.741 642.533 530.653 707.78 521 775C520.839 776.111 520.678 777.222 520.513 778.367C513.39 829.66 517.928 884.063 549.965 926.609C574.282 957.62 606.545 977.516 640.578 996.418C647.271 1000.14 653.928 1003.92 660.562 1007.75C661.61 1008.35 662.658 1008.94 663.737 1009.56C664.692 1010.11 665.646 1010.66 666.629 1011.23C667.475 1011.72 668.322 1012.21 669.194 1012.71C669.79 1013.14 670.386 1013.56 671 1014C671 1014.66 671 1015.32 671 1016C575.578 1027.29 480.256 1012.8 403 952C397.852 947.831 392.895 943.462 388 939C387.312 938.374 386.624 937.748 385.915 937.103C383.769 935.139 381.632 933.166 379.5 931.188C378.853 930.589 378.207 929.991 377.54 929.375C373.644 925.715 370.062 921.889 366.581 917.833C364.579 915.512 362.476 913.294 360.375 911.062C323.672 870.739 295.672 819.427 289 765C288.906 764.281 288.811 763.562 288.714 762.821C286.151 740.984 287.075 717.574 291 696C291.188 694.961 291.376 693.921 291.57 692.851C296.602 666.083 305.563 640.667 317 616C317.798 614.241 318.596 612.482 319.394 610.723C325.521 597.388 332.572 584.648 340 572C340.541 571.075 341.082 570.15 341.64 569.197C354.658 547.054 369.201 525.821 384.424 505.141C386.104 502.858 387.777 500.57 389.449 498.281C404.735 477.402 420.667 457.015 436.673 436.686C438.951 433.792 441.225 430.896 443.5 428C444.417 426.833 445.333 425.667 446.25 424.5C446.704 423.923 447.157 423.345 447.625 422.75C451.75 417.5 451.75 417.5 453.124 415.751C454.043 414.581 454.962 413.411 455.882 412.241C458.134 409.373 460.388 406.506 462.644 403.641C480.158 381.39 497.57 359.069 514 336C514.993 334.613 515.987 333.227 516.98 331.84C534.578 307.187 550.896 281.818 565 255C565.466 254.123 565.933 253.246 566.414 252.342C581.921 223.048 593.191 191.85 598 159C598.105 158.332 598.209 157.665 598.317 156.977C599.299 149.755 599.15 142.464 599.13 135.191C599.125 132.901 599.13 130.611 599.137 128.32C599.14 118.838 598.764 109.453 598 100Z" fill="#0E6CC5"/>
<path d="M681 287C721.857 338.859 738.949 435.932 739.203 500.508C739.209 501.672 739.215 502.836 739.22 504.036C739.23 506.492 739.236 508.947 739.24 511.403C739.25 515.067 739.281 518.731 739.313 522.395C739.41 543.597 737.815 564.412 732.812 585.055C731.9 588.834 731.045 592.627 730.18 596.418C729.999 597.204 729.819 597.989 729.633 598.799C720.502 638.654 713.331 679.227 710 720C709.907 721.02 709.814 722.039 709.719 723.09C705.7 771.263 705.4 832.88 738.238 872.047C739.948 873.993 739.948 873.993 741.73 875.641C743 877 743 877 743 879C743.59 879.266 744.181 879.531 744.789 879.805C747.057 881.031 748.534 882.334 750.375 884.125C773.139 904.253 805.117 906.46 834 905C841.721 904.367 849.359 903.261 857 902C858.362 901.785 859.724 901.57 861.086 901.355C863.729 900.927 866.366 900.481 869 900C867.604 903.192 865.984 905.211 863.438 907.574C862.728 908.237 862.019 908.9 861.288 909.583C860.533 910.278 859.778 910.972 859 911.688C858.226 912.406 857.452 913.124 856.655 913.864C855.122 915.284 853.587 916.702 852.048 918.116C850.407 919.625 848.775 921.143 847.145 922.664C840.422 928.858 833.264 934.462 826 940C825.411 940.451 824.822 940.903 824.215 941.368C809.116 952.879 793.25 963.032 776 971C774.877 971.531 773.754 972.062 772.598 972.609C737.309 988.586 699.372 990.361 663 977C642.035 968.834 621.118 957.71 604 943C602.488 941.73 602.488 941.73 600.945 940.434C576.156 919.061 563.123 888.612 560.465 856.361C557.075 809.087 571.621 763.09 587 719C587.426 717.775 587.852 716.55 588.291 715.288C599.51 683.286 612.572 651.895 625.646 620.617C652.818 555.597 678.875 488.915 690 419C690.165 417.98 690.33 416.959 690.501 415.908C695.014 386.732 695.882 354.009 690 325C689.812 324.061 689.625 323.122 689.432 322.154C687.369 312.068 684.972 302.13 681.699 292.363C681 290 681 290 681 287Z" fill="#73C046"/>
<path d="M777 438C782.239 442.124 786.273 446.613 790.422 451.82C793.299 455.412 796.34 458.855 799.375 462.312C805.053 468.814 810.45 475.491 815.713 482.331C816.952 483.937 818.2 485.535 819.449 487.133C825.941 495.474 832.155 504.005 838.292 512.61C839.421 514.189 840.552 515.766 841.688 517.339C855.866 536.995 868.595 557.618 880 579C880.695 580.291 880.695 580.291 881.404 581.609C913.267 640.961 950.207 724.596 929.605 793.096C920.978 820.249 901.485 853.246 875.753 866.94C860.59 874.749 842.841 875.406 826.594 870.391C815.957 866.275 806.442 860.712 798 853C797.238 852.31 797.238 852.31 796.461 851.606C788.069 843.911 781.613 835.896 776 826C775.138 824.486 775.138 824.486 774.258 822.941C766.378 808.182 764.986 793.406 764 777C763.942 776.06 763.884 775.12 763.825 774.151C761.94 742.27 764.012 711.616 769.567 680.171C770.847 672.925 772.074 665.67 773.297 658.414C773.418 657.7 773.538 656.985 773.662 656.249C776.75 637.907 779.118 619.503 781 601C781.122 599.806 781.243 598.611 781.369 597.381C782.009 590.926 782.576 584.472 783 578C783.085 576.773 783.171 575.546 783.259 574.282C784.133 560.924 784.242 547.571 784.25 534.188C784.252 532.413 784.252 532.413 784.253 530.603C784.236 501.508 782.19 473.035 777.32 444.345C777 442 777 442 777 438Z" fill="#73C046"/>
<path d="M1134 615C1139.49 618.429 1143.08 623.462 1146.63 628.75C1147.67 630.268 1148.72 631.785 1149.76 633.301C1150.56 634.466 1150.56 634.466 1151.38 635.655C1154.01 639.456 1156.72 643.196 1159.44 646.938C1160.53 648.447 1161.62 649.956 1162.71 651.465C1163.26 652.214 1163.8 652.962 1164.36 653.734C1167.08 657.486 1169.79 661.243 1172.5 665C1175.78 669.548 1179.07 674.095 1182.36 678.641C1187.44 685.668 1192.51 692.699 1197.56 699.75C1198.33 700.817 1199.09 701.885 1199.88 702.984C1201.97 705.958 1203.99 708.972 1206 712C1206 710.923 1206.01 709.847 1206.01 708.738C1206.05 698.585 1206.11 688.433 1206.18 678.281C1206.22 673.061 1206.26 667.842 1206.27 662.623C1206.29 657.585 1206.32 652.547 1206.37 647.509C1206.38 645.588 1206.39 643.667 1206.39 641.746C1206.39 639.053 1206.42 636.361 1206.45 633.667C1206.45 632.48 1206.45 632.48 1206.44 631.268C1206.54 626.067 1207.62 623.155 1211 619C1214.82 615.372 1217.88 614.69 1223 614.5C1228.12 614.703 1231.26 615.256 1235 619C1239.52 626.062 1239.57 632.142 1239.5 640.389C1239.51 641.73 1239.51 643.072 1239.52 644.413C1239.53 648.035 1239.52 651.656 1239.5 655.278C1239.49 659.077 1239.5 662.877 1239.5 666.676C1239.5 673.053 1239.49 679.43 1239.47 685.807C1239.44 693.171 1239.44 700.535 1239.45 707.899C1239.46 714.997 1239.45 722.095 1239.44 729.193C1239.43 732.208 1239.43 735.223 1239.44 738.238C1239.44 741.789 1239.43 745.34 1239.41 748.891C1239.4 750.81 1239.41 752.729 1239.42 754.648C1239.36 761.326 1239.21 766.478 1234.5 771.645C1230.14 775.038 1227.15 776.169 1221.69 776.312C1220.3 776.369 1220.3 776.369 1218.89 776.426C1214.46 775.772 1211.53 773.801 1208.63 770.384C1207.19 768.437 1205.84 766.452 1204.5 764.438C1203.45 762.902 1202.4 761.369 1201.34 759.836C1200.79 759.04 1200.25 758.245 1199.69 757.425C1196.89 753.41 1193.98 749.488 1191.06 745.562C1184.85 737.166 1178.71 728.713 1172.61 720.234C1169.38 715.748 1166.14 711.268 1162.9 706.787C1160.04 702.828 1157.18 698.866 1154.33 694.902C1153.73 694.072 1153.13 693.241 1152.51 692.385C1151.36 690.781 1150.2 689.177 1149.05 687.572C1148.53 686.856 1148.02 686.14 1147.48 685.402C1147.03 684.768 1146.57 684.134 1146.1 683.48C1145.08 682.028 1145.08 682.028 1144 681C1144 682.052 1143.99 683.103 1143.99 684.187C1143.95 694.104 1143.89 704.02 1143.82 713.937C1143.78 719.035 1143.74 724.133 1143.73 729.231C1143.71 734.153 1143.68 739.074 1143.63 743.995C1143.62 745.871 1143.61 747.748 1143.61 749.624C1143.61 752.255 1143.58 754.885 1143.55 757.516C1143.55 758.676 1143.55 758.676 1143.56 759.859C1143.46 765.054 1142.26 767.983 1139 772C1135.18 775.628 1132.12 776.31 1127 776.5C1121.88 776.31 1118.82 775.628 1115 772C1109.68 766.236 1110.44 759.992 1110.48 752.471C1110.48 751.09 1110.47 749.71 1110.46 748.33C1110.44 744.592 1110.45 740.855 1110.46 737.117C1110.47 733.2 1110.46 729.283 1110.46 725.366C1110.45 718.789 1110.46 712.212 1110.48 705.635C1110.5 698.038 1110.49 690.442 1110.47 682.844C1110.45 676.314 1110.45 669.784 1110.46 663.254C1110.47 659.357 1110.47 655.461 1110.45 651.564C1110.44 647.899 1110.45 644.236 1110.47 640.571C1110.48 638.59 1110.47 636.609 1110.46 634.628C1110.56 623.822 1110.56 623.822 1115 619C1120.18 613.957 1127.15 613.5 1134 615Z" fill="white"/>
<path d="M1636.24 627.273C1641.76 631.655 1647.79 636.581 1651 643C1651.56 648.963 1651.5 653.929 1648 659C1642.59 663.886 1639.13 664.359 1631.96 664.273C1627.93 663.901 1626.05 662.646 1623 660C1609.25 648.28 1595.56 645.733 1578 647C1566.65 649.026 1556.16 655.985 1549 665C1540.9 677.577 1536.95 690.923 1540.08 705.786C1543.03 718.49 1549.51 729.469 1560.64 736.719C1569.92 742.002 1578.12 744.555 1588.81 744.437C1590.27 744.426 1590.27 744.426 1591.75 744.415C1602.79 744.161 1612.56 741.421 1621 734C1622.74 731.728 1622.74 731.728 1624.26 729.293C1624.78 728.488 1625.3 727.682 1625.83 726.852C1626.22 726.241 1626.6 725.63 1627 725C1626 725.031 1626 725.031 1624.98 725.063C1621.95 725.147 1618.91 725.199 1615.88 725.25C1614.83 725.284 1613.78 725.317 1612.7 725.352C1606.46 725.431 1602.7 725.271 1598 721C1595.03 717.659 1594.06 714.478 1593.5 710.062C1593.76 705.57 1595.22 701.544 1598 698C1603.39 693.319 1608.14 693.414 1615.09 693.469C1616.16 693.465 1617.22 693.461 1618.32 693.457C1620.57 693.454 1622.81 693.462 1625.06 693.479C1628.49 693.5 1631.92 693.479 1635.35 693.453C1637.53 693.456 1639.72 693.461 1641.91 693.469C1642.93 693.461 1643.95 693.453 1645 693.444C1650.99 693.523 1654.44 694.019 1659 698C1664.16 704.119 1663.78 710.321 1663.23 717.912C1661.37 734.95 1651.47 750.142 1638.59 761.059C1618.95 775.763 1596.55 779.248 1572.43 776.732C1557.86 774.45 1543.77 766.926 1533 757C1532.15 756.228 1531.3 755.456 1530.42 754.66C1514.83 739.864 1506.16 719.422 1505.58 698.031C1505.44 674.753 1512.97 653.5 1529.32 636.684C1530.65 635.355 1530.65 635.355 1532 634C1532.66 633.331 1533.31 632.662 1533.99 631.973C1561.13 606.291 1606.59 606.462 1636.24 627.273Z" fill="white"/>
<path d="M1406.11 614.469C1407.38 614.465 1408.66 614.461 1409.97 614.457C1412.67 614.454 1415.36 614.46 1418.06 614.479C1421.48 614.501 1424.9 614.488 1428.33 614.464C1431.63 614.446 1434.93 614.459 1438.23 614.469C1439.45 614.461 1440.66 614.453 1441.91 614.444C1455.4 614.591 1467.25 619.418 1477.19 628.625C1487.29 639.377 1491.7 652.156 1491.28 666.773C1490.2 679.158 1485.3 691.457 1476 700C1467.05 707 1467.05 707 1464 707C1468.39 716.129 1473.07 725.031 1478.13 733.812C1478.9 735.166 1478.9 735.166 1479.69 736.547C1481.78 740.194 1483.89 743.819 1486.1 747.395C1489.84 753.59 1491.34 758.75 1490 766C1487.7 770.865 1484.88 773.734 1480 776C1474.24 776.858 1469.83 776.936 1464.57 774.246C1459.39 770.227 1456.8 764.194 1453.81 758.5C1453.16 757.289 1452.51 756.079 1451.86 754.87C1450.86 753.031 1449.87 751.193 1448.88 749.35C1445.82 743.63 1442.62 737.995 1439.38 732.375C1438.44 730.758 1437.52 729.141 1436.59 727.523C1436.14 726.781 1435.7 726.038 1435.24 725.272C1434 723 1434 723 1433.05 720.454C1431.94 717.734 1431.15 716.019 1429 714C1424.31 712.927 1419.8 712.838 1415 713C1415.01 713.976 1415.01 713.976 1415.03 714.972C1415.12 721.753 1415.18 728.533 1415.22 735.314C1415.24 737.844 1415.27 740.374 1415.3 742.903C1415.35 746.542 1415.37 750.181 1415.39 753.82C1415.42 755.513 1415.42 755.513 1415.45 757.24C1415.46 763.497 1415.23 767.262 1411 772C1407.18 775.628 1404.12 776.31 1399 776.5C1393.88 776.31 1390.82 775.628 1387 772C1381.68 766.236 1382.44 759.992 1382.48 752.471C1382.48 751.09 1382.47 749.71 1382.46 748.33C1382.44 744.592 1382.45 740.855 1382.46 737.117C1382.47 733.2 1382.46 729.283 1382.46 725.366C1382.45 718.789 1382.46 712.212 1382.48 705.635C1382.5 698.038 1382.49 690.442 1382.47 682.844C1382.45 676.314 1382.45 669.784 1382.46 663.254C1382.47 659.357 1382.47 655.461 1382.45 651.564C1382.44 647.899 1382.45 644.236 1382.47 640.571C1382.48 638.59 1382.47 636.609 1382.46 634.628C1382.56 623.819 1382.56 623.819 1387 619C1392.53 613.673 1398.87 614.421 1406.11 614.469ZM1415 646C1415 657.55 1415 669.1 1415 681C1419.62 681.083 1424.24 681.165 1429 681.25C1430.44 681.286 1431.88 681.323 1433.37 681.36C1442.46 681.439 1448.06 680.685 1454.88 674.312C1457.83 669.703 1459.49 665.388 1458.69 659.855C1457.06 654.569 1453.83 650.687 1449 648C1441.88 645.574 1434.96 645.769 1427.5 645.875C1421.31 645.937 1421.31 645.937 1415 646Z" fill="white"/>
<path d="M1535.11 398.469C1536.38 398.465 1537.66 398.461 1538.97 398.457C1541.67 398.454 1544.36 398.46 1547.06 398.479C1550.48 398.501 1553.9 398.488 1557.33 398.464C1560.63 398.446 1563.93 398.459 1567.23 398.469C1568.45 398.461 1569.66 398.453 1570.91 398.444C1584.4 398.591 1596.25 403.418 1606.19 412.625C1616.29 423.377 1620.7 436.156 1620.28 450.773C1619.2 463.158 1614.3 475.457 1605 484C1596.05 491 1596.05 491 1593 491C1597.39 500.129 1602.07 509.031 1607.13 517.812C1607.9 519.166 1607.9 519.166 1608.69 520.547C1610.78 524.194 1612.89 527.819 1615.1 531.395C1618.84 537.59 1620.34 542.75 1619 550C1616.7 554.865 1613.88 557.734 1609 560C1603.24 560.858 1598.83 560.936 1593.57 558.246C1588.39 554.227 1585.8 548.194 1582.81 542.5C1582.16 541.289 1581.51 540.079 1580.86 538.87C1579.86 537.031 1578.87 535.193 1577.88 533.35C1574.82 527.63 1571.62 521.995 1568.38 516.375C1567.44 514.758 1566.52 513.141 1565.59 511.523C1565.14 510.781 1564.7 510.038 1564.24 509.272C1563 507 1563 507 1562.05 504.454C1560.94 501.734 1560.15 500.019 1558 498C1553.31 496.927 1548.8 496.838 1544 497C1544.01 497.976 1544.01 497.976 1544.03 498.972C1544.12 505.753 1544.18 512.533 1544.22 519.314C1544.24 521.844 1544.27 524.374 1544.3 526.903C1544.35 530.542 1544.37 534.181 1544.39 537.82C1544.42 539.513 1544.42 539.513 1544.45 541.24C1544.46 547.497 1544.23 551.262 1540 556C1536.18 559.628 1533.12 560.31 1528 560.5C1522.88 560.31 1519.82 559.628 1516 556C1510.68 550.236 1511.44 543.992 1511.48 536.471C1511.48 535.09 1511.47 533.71 1511.46 532.33C1511.44 528.592 1511.45 524.855 1511.46 521.117C1511.47 517.2 1511.46 513.283 1511.46 509.366C1511.45 502.789 1511.46 496.212 1511.48 489.635C1511.5 482.038 1511.49 474.442 1511.47 466.844C1511.45 460.314 1511.45 453.784 1511.46 447.254C1511.47 443.357 1511.47 439.461 1511.45 435.564C1511.44 431.899 1511.45 428.236 1511.47 424.571C1511.48 422.59 1511.47 420.609 1511.46 418.628C1511.56 407.819 1511.56 407.819 1516 403C1521.53 397.673 1527.87 398.421 1535.11 398.469ZM1544 430C1544 441.55 1544 453.1 1544 465C1548.62 465.083 1553.24 465.165 1558 465.25C1559.44 465.286 1560.88 465.323 1562.37 465.36C1571.46 465.439 1577.06 464.685 1583.88 458.312C1586.83 453.703 1588.49 449.388 1587.69 443.855C1586.06 438.569 1582.83 434.687 1578 432C1570.88 429.574 1563.96 429.769 1556.5 429.875C1550.31 429.937 1550.31 429.937 1544 430Z" fill="white"/>
<path d="M1074.56 397.562C1076.12 397.547 1076.12 397.547 1077.72 397.531C1093.69 397.711 1107.16 402.827 1118.84 413.754C1123.83 418.943 1126.4 422.519 1126.28 429.941C1125.65 434.593 1122.74 437.312 1119.44 440.375C1114.4 442.756 1110.46 443.268 1105 442C1101.16 440.117 1097.72 437.658 1094.26 435.164C1088.27 431.189 1083.11 430.658 1076.12 430.688C1075.36 430.671 1074.6 430.655 1073.81 430.639C1067 430.633 1061.45 431.925 1056.12 436.438C1052.3 441.054 1051.46 443.891 1052 450C1053.93 454.614 1056.78 456.467 1061 459C1064.15 460.151 1064.15 460.151 1067.56 460.938C1068.51 461.179 1068.51 461.179 1069.48 461.426C1073.36 462.401 1077.25 463.285 1081.16 464.152C1099.29 468.222 1115.52 473.349 1127 489C1133.25 499.434 1133.77 512.256 1131.62 524.108C1129.58 531.818 1125.41 538.244 1120 544C1119.29 544.761 1118.58 545.521 1117.86 546.305C1104.93 559.039 1089.16 562.424 1071.58 562.364C1053.56 562.068 1038.51 556.142 1025.38 543.555C1020.15 537.94 1015.23 531.577 1014.9 523.656C1015.12 517.914 1016.41 514.567 1020.33 510.375C1023.5 507.766 1026.21 506.698 1030.31 506.625C1031.03 506.597 1031.75 506.568 1032.49 506.539C1039.44 507.815 1043.59 512.359 1047.94 517.5C1054.21 524.612 1060.02 528.621 1069.76 529.238C1079.46 529.484 1088.58 529.474 1096.06 522.375C1099.59 518.051 1099.49 514.422 1099 509C1097.4 504.512 1094.76 503.031 1090.56 500.997C1084.23 498.534 1077.36 497.641 1070.71 496.377C1054.36 493.115 1036.7 487.184 1026.38 473.375C1018.4 461.299 1017.03 448.571 1019.66 434.461C1023.76 420.728 1033.42 410.326 1045.81 403.578C1055.56 398.755 1063.77 397.644 1074.56 397.562Z" fill="white"/>
<path d="M1170 399C1174.97 401.306 1177.39 404.238 1180 409C1180.56 412.057 1180.53 415.051 1180.5 418.151C1180.5 419.053 1180.51 419.955 1180.51 420.884C1180.52 422.835 1180.52 424.786 1180.52 426.737C1180.5 429.832 1180.52 432.927 1180.53 436.022C1180.56 441.483 1180.56 446.943 1180.56 452.404C1180.56 461.129 1180.58 469.855 1180.62 478.58C1180.63 481.616 1180.62 484.653 1180.61 487.689C1180.62 489.57 1180.62 491.45 1180.63 493.331C1180.62 494.165 1180.62 494.998 1180.61 495.857C1180.69 505.54 1183.24 513.91 1190 521C1197.39 527.541 1204.67 528.407 1214.37 528.246C1222.07 527.725 1227.86 524.772 1233 519C1238.59 510.908 1239.31 501.01 1239.21 491.455C1239.21 490.559 1239.21 489.663 1239.2 488.74C1239.2 486.815 1239.19 484.889 1239.18 482.964C1239.17 479.911 1239.17 476.859 1239.18 473.806C1239.2 465.133 1239.2 456.461 1239.15 447.788C1239.13 442.466 1239.13 437.145 1239.16 431.823C1239.17 429.803 1239.16 427.783 1239.14 425.763C1238.95 408.016 1238.95 408.016 1243.36 402.764C1248.08 398.541 1252.97 398.65 1259.05 398.731C1263.13 399.104 1265.1 400.101 1268 403C1271.82 408.741 1272.58 413.815 1272.5 420.59C1272.51 421.978 1272.51 421.978 1272.52 423.393C1272.53 426.431 1272.51 429.469 1272.5 432.508C1272.5 434.638 1272.5 436.767 1272.5 438.897C1272.5 443.357 1272.49 447.817 1272.47 452.277C1272.44 457.959 1272.44 463.641 1272.45 469.323C1272.46 473.723 1272.45 478.122 1272.44 482.522C1272.44 484.615 1272.44 486.707 1272.44 488.8C1272.45 503.266 1272.27 517.299 1265.25 530.375C1264.9 531.049 1264.54 531.724 1264.18 532.418C1256.41 546.806 1243.46 555.295 1228 560C1214.6 563.097 1197.56 562.851 1185 557C1183.9 556.491 1182.79 555.982 1181.66 555.457C1166.26 547.74 1156.12 535.803 1150.14 519.677C1147.02 509.049 1147.57 498.132 1147.6 487.164C1147.6 484.954 1147.6 482.743 1147.59 480.533C1147.59 475.922 1147.59 471.311 1147.61 466.7C1147.63 460.795 1147.62 454.891 1147.6 448.986C1147.59 444.431 1147.59 439.876 1147.6 435.32C1147.6 433.143 1147.6 430.965 1147.59 428.787C1147.58 425.748 1147.6 422.71 1147.61 419.67C1147.61 418.776 1147.6 417.881 1147.59 416.959C1147.64 411.893 1148.18 408.383 1151 404C1157.09 398.508 1161.96 398.253 1170 399Z" fill="white"/>
<path d="M1711 399C1719.58 402.829 1722.4 412.92 1725.89 421.047C1726.36 422.118 1726.82 423.19 1727.3 424.294C1728.81 427.777 1730.31 431.264 1731.81 434.75C1732.86 437.171 1733.9 439.592 1734.95 442.012C1737.97 449.006 1740.99 456.002 1744 463C1744.76 464.757 1745.51 466.513 1746.27 468.27C1750.2 477.404 1754.12 486.546 1758.02 495.694C1759.1 498.231 1760.18 500.766 1761.26 503.302C1763.25 507.958 1765.23 512.614 1767.21 517.27C1767.98 519.076 1768.75 520.882 1769.52 522.687C1770.58 525.187 1771.65 527.687 1772.71 530.188C1773.03 530.936 1773.35 531.684 1773.68 532.455C1776.47 539.037 1778.56 544.901 1776.39 552.004C1774.32 556.212 1771.56 558.552 1767.28 560.406C1761.74 561.849 1756.87 561.022 1751.9 558.305C1741.86 550.329 1737.06 529.926 1733 520C1714.19 519.67 1695.38 519.34 1676 519C1675.01 521.97 1674.02 524.94 1673 528C1671.44 532.277 1669.79 536.513 1668.12 540.75C1667.7 541.86 1667.28 542.97 1666.85 544.113C1663.94 551.515 1661.75 555.836 1654.75 559.875C1649.14 561.557 1644.53 561.123 1639.19 558.75C1635.07 555.458 1632.85 552.746 1631.94 547.5C1631.39 535.513 1639.95 522.128 1644.75 511.362C1646.9 506.555 1649.03 501.742 1651.16 496.93C1651.58 495.977 1652.01 495.024 1652.44 494.043C1655.81 486.44 1659.14 478.821 1662.44 471.188C1662.93 470.059 1663.41 468.93 1663.92 467.767C1666.42 461.975 1668.92 456.181 1671.41 450.382C1673.65 445.173 1675.9 439.967 1678.15 434.762C1679.04 432.69 1679.93 430.617 1680.82 428.544C1682.07 425.623 1683.33 422.706 1684.59 419.789C1684.96 418.919 1685.33 418.05 1685.72 417.154C1691.32 404.271 1695.78 397.183 1711 399ZM1704 451C1701.86 456.108 1699.73 461.216 1697.59 466.326C1696.86 468.065 1696.14 469.805 1695.41 471.544C1694.36 474.038 1693.32 476.532 1692.28 479.027C1691.95 479.81 1691.63 480.592 1691.29 481.398C1689.7 484.599 1689.7 484.599 1689 488C1699.23 488 1709.46 488 1720 488C1715.07 475.636 1710.1 463.296 1705 451C1704.67 451 1704.34 451 1704 451Z" fill="white"/>
<path d="M1283.11 614.823C1283.84 614.816 1284.57 614.81 1285.33 614.803C1287.75 614.783 1290.18 614.772 1292.61 614.762C1293.44 614.758 1294.27 614.754 1295.12 614.749C1299.51 614.729 1303.9 614.714 1308.29 614.705C1312.82 614.694 1317.35 614.659 1321.88 614.62C1325.37 614.593 1328.86 614.585 1332.34 614.582C1334.01 614.577 1335.68 614.565 1337.35 614.547C1339.69 614.522 1342.03 614.523 1344.37 614.53C1345.4 614.511 1345.4 614.511 1346.45 614.491C1351.4 614.545 1354.17 615.947 1358 619C1361.78 623.299 1362.3 627.171 1362.21 632.719C1361.77 637.429 1359.88 640.204 1356.44 643.312C1352.88 645.773 1351.11 646.124 1346.82 646.114C1345.73 646.113 1344.65 646.113 1343.54 646.113C1341.78 646.106 1341.78 646.106 1339.99 646.098C1338.8 646.096 1337.6 646.095 1336.37 646.093C1332.54 646.088 1328.71 646.075 1324.87 646.062C1322.28 646.057 1319.69 646.053 1317.1 646.049C1310.73 646.039 1304.37 646.019 1298 646C1298 657.55 1298 669.1 1298 681C1300.51 680.893 1303.01 680.786 1305.59 680.676C1308.04 680.583 1310.49 680.495 1312.94 680.408C1314.63 680.345 1316.32 680.276 1318.02 680.201C1320.46 680.094 1322.9 680.008 1325.34 679.926C1326.09 679.888 1326.84 679.851 1327.6 679.813C1333.35 679.651 1339.16 680.427 1343.57 684.418C1347.54 689.008 1348.36 692.852 1348.28 698.719C1347.7 703.506 1345 706.165 1341.43 709.144C1336.98 711.554 1333.64 711.512 1328.66 711.391C1327.78 711.385 1326.91 711.379 1326 711.373C1323.21 711.351 1320.42 711.301 1317.62 711.25C1315.73 711.23 1313.83 711.212 1311.93 711.195C1307.28 711.155 1302.64 711.076 1298 711C1298 722.22 1298 733.44 1298 745C1301.83 744.954 1305.66 744.907 1309.6 744.859C1313.31 744.828 1317.03 744.804 1320.74 744.78C1323.32 744.76 1325.9 744.733 1328.48 744.698C1332.18 744.65 1335.89 744.627 1339.6 744.609C1340.75 744.589 1341.9 744.568 1343.09 744.547C1349.37 744.545 1353.28 744.678 1358 749C1361.46 753.647 1362.62 757.067 1362.32 762.863C1361.52 768.257 1358.92 771.568 1354.74 774.941C1351.77 776.747 1348.71 776.688 1345.35 776.631C1344.23 776.642 1344.23 776.642 1343.1 776.653C1340.66 776.67 1338.22 776.65 1335.78 776.629C1334.08 776.63 1332.37 776.632 1330.67 776.636C1327.11 776.639 1323.54 776.624 1319.98 776.597C1315.42 776.563 1310.86 776.569 1306.3 776.588C1302.78 776.598 1299.27 776.589 1295.75 776.574C1294.07 776.569 1292.39 776.569 1290.71 776.576C1288.36 776.581 1286.01 776.561 1283.65 776.533C1282.97 776.54 1282.28 776.546 1281.57 776.553C1275.27 776.43 1271.93 773.984 1267.66 769.59C1265.08 764.015 1265.45 758.63 1265.5 752.562C1265.49 751.192 1265.49 749.822 1265.48 748.451C1265.47 744.74 1265.48 741.03 1265.5 737.319C1265.51 733.43 1265.5 729.541 1265.5 725.652C1265.5 719.122 1265.51 712.592 1265.53 706.062C1265.56 698.52 1265.56 690.978 1265.55 683.435C1265.54 676.171 1265.55 668.906 1265.56 661.641C1265.57 658.554 1265.57 655.466 1265.56 652.378C1265.56 648.741 1265.57 645.103 1265.59 641.465C1265.6 639.498 1265.59 637.531 1265.58 635.564C1265.59 634.387 1265.6 633.209 1265.61 631.996C1265.61 630.977 1265.62 629.958 1265.62 628.908C1266.25 624.124 1268 620.901 1271.56 617.688C1275.54 614.934 1278.39 614.841 1283.11 614.823Z" fill="white"/>
<path d="M1010.11 614.823C1010.84 614.816 1011.57 614.81 1012.33 614.803C1014.75 614.783 1017.18 614.772 1019.61 614.762C1020.44 614.758 1021.27 614.754 1022.12 614.749C1026.51 614.729 1030.9 614.714 1035.29 614.705C1039.82 614.694 1044.35 614.659 1048.88 614.62C1052.37 614.593 1055.86 614.585 1059.34 614.582C1061.01 614.577 1062.68 614.565 1064.35 614.547C1066.69 614.522 1069.03 614.523 1071.37 614.53C1072.4 614.511 1072.4 614.511 1073.45 614.491C1078.4 614.545 1081.17 615.947 1085 619C1088.78 623.299 1089.3 627.171 1089.21 632.719C1088.77 637.429 1086.88 640.204 1083.44 643.312C1079.88 645.773 1078.11 646.124 1073.82 646.114C1072.73 646.113 1071.65 646.113 1070.54 646.113C1068.78 646.106 1068.78 646.106 1066.99 646.098C1065.8 646.096 1064.6 646.095 1063.37 646.093C1059.54 646.088 1055.71 646.075 1051.87 646.062C1049.28 646.057 1046.69 646.053 1044.1 646.049C1037.73 646.039 1031.37 646.019 1025 646C1025 657.55 1025 669.1 1025 681C1027.51 680.893 1030.01 680.786 1032.59 680.676C1035.04 680.583 1037.49 680.495 1039.94 680.408C1041.63 680.345 1043.32 680.276 1045.02 680.201C1047.46 680.094 1049.9 680.008 1052.34 679.926C1053.09 679.888 1053.84 679.851 1054.6 679.813C1060.35 679.651 1066.16 680.427 1070.57 684.418C1074.54 689.008 1075.36 692.852 1075.28 698.719C1074.7 703.506 1072 706.165 1068.43 709.144C1063.98 711.554 1060.64 711.512 1055.66 711.391C1054.78 711.385 1053.91 711.379 1053 711.373C1050.21 711.351 1047.42 711.301 1044.62 711.25C1042.73 711.23 1040.83 711.212 1038.93 711.195C1034.28 711.155 1029.64 711.076 1025 711C1025 722.22 1025 733.44 1025 745C1028.83 744.954 1032.66 744.907 1036.6 744.859C1040.31 744.828 1044.03 744.804 1047.74 744.78C1050.32 744.76 1052.9 744.733 1055.48 744.698C1059.18 744.65 1062.89 744.627 1066.6 744.609C1067.75 744.589 1068.9 744.568 1070.09 744.547C1076.37 744.545 1080.28 744.678 1085 749C1088.46 753.647 1089.62 757.067 1089.32 762.863C1088.52 768.257 1085.92 771.568 1081.74 774.941C1078.77 776.747 1075.71 776.688 1072.35 776.631C1071.23 776.642 1071.23 776.642 1070.1 776.653C1067.66 776.67 1065.22 776.65 1062.78 776.629C1061.08 776.63 1059.37 776.632 1057.67 776.636C1054.11 776.639 1050.54 776.624 1046.98 776.597C1042.42 776.563 1037.86 776.569 1033.3 776.588C1029.78 776.598 1026.27 776.589 1022.75 776.574C1021.07 776.569 1019.39 776.569 1017.71 776.576C1015.36 776.581 1013.01 776.561 1010.65 776.533C1009.97 776.54 1009.28 776.546 1008.57 776.553C1002.27 776.43 998.929 773.984 994.656 769.59C992.084 764.015 992.452 758.63 992.498 752.562C992.494 751.192 992.489 749.822 992.482 748.451C992.468 744.74 992.479 741.03 992.495 737.319C992.509 733.43 992.503 729.541 992.499 725.652C992.497 719.122 992.51 712.592 992.533 706.062C992.56 698.52 992.562 690.978 992.55 683.435C992.539 676.171 992.545 668.906 992.559 661.641C992.565 658.554 992.565 655.466 992.56 652.378C992.555 648.741 992.566 645.103 992.587 641.465C992.595 639.498 992.589 637.531 992.582 635.564C992.592 634.387 992.602 633.209 992.612 631.996C992.614 630.977 992.617 629.958 992.619 628.908C993.245 624.124 995.001 620.901 998.562 617.688C1002.54 614.934 1005.39 614.841 1010.11 614.823Z" fill="white"/>
<path d="M1311.44 400.687C1317.29 405.966 1319.85 411.771 1322.82 418.93C1323.51 420.561 1323.51 420.561 1324.22 422.225C1325.71 425.772 1327.2 429.323 1328.69 432.875C1330.49 437.156 1332.3 441.436 1334.11 445.716C1334.89 447.566 1335.67 449.417 1336.45 451.267C1341.2 462.506 1346.05 473.699 1350.94 484.875C1351.3 485.713 1351.67 486.55 1352.05 487.413C1354.03 491.943 1356.01 496.472 1358 501C1360.39 498.057 1361.89 495.227 1363.33 491.727C1364.02 490.063 1364.02 490.063 1364.72 488.365C1364.97 487.76 1365.21 487.156 1365.47 486.532C1366.87 483.121 1368.28 479.719 1369.7 476.316C1370.02 475.545 1370.34 474.774 1370.67 473.98C1375.22 463.038 1379.86 452.134 1384.5 441.229C1386.05 437.599 1387.59 433.968 1389.13 430.336C1390.1 428.059 1391.07 425.781 1392.04 423.504C1392.48 422.462 1392.92 421.421 1393.37 420.347C1400.98 402.509 1400.98 402.509 1408 399C1413.51 398.497 1418.4 398.287 1423.5 400.562C1427.66 404.622 1429.84 407.685 1430.25 413.58C1430.19 418.504 1428.62 422.41 1426.7 426.887C1426.34 427.743 1425.99 428.6 1425.62 429.482C1424.43 432.329 1423.22 435.165 1422 438C1421.58 438.992 1421.15 439.985 1420.71 441.007C1417.94 447.48 1415.13 453.936 1412.31 460.388C1409.75 466.243 1407.2 472.101 1404.65 477.961C1404.16 479.104 1403.66 480.247 1403.15 481.425C1399.32 490.234 1395.57 499.071 1391.88 507.937C1383.3 528.479 1383.3 528.479 1379.85 536.553C1379.29 537.87 1378.74 539.188 1378.19 540.507C1372.03 555.199 1372.03 555.199 1366.05 559.352C1360.31 561.163 1353.94 560.866 1348.5 558.437C1343.01 553.085 1340.37 545.559 1337.39 538.621C1336.94 537.601 1336.5 536.581 1336.05 535.53C1334.59 532.167 1333.14 528.803 1331.69 525.437C1330.67 523.078 1329.65 520.718 1328.63 518.359C1321.27 501.322 1313.96 484.261 1306.69 467.187C1306.22 466.092 1305.75 464.996 1305.27 463.867C1303.04 458.635 1300.82 453.401 1298.61 448.162C1296.8 443.878 1294.96 439.607 1293.11 435.342C1292.19 433.183 1291.26 431.023 1290.33 428.863C1289.9 427.874 1289.46 426.885 1289.01 425.866C1286.45 419.843 1284.85 415.208 1286.63 408.707C1288.64 404.629 1290.61 401.684 1294.88 399.625C1300.62 397.934 1306.07 398.052 1311.44 400.687Z" fill="white"/>
<path d="M1689.25 614.688C1690.18 614.65 1691.12 614.613 1692.08 614.574C1696.52 615.222 1699.46 617.146 1702.34 620.614C1703.76 622.599 1705.07 624.626 1706.38 626.688C1706.88 627.463 1707.38 628.238 1707.9 629.037C1709.61 631.683 1711.31 634.341 1713 637C1714.32 639.05 1715.63 641.099 1716.95 643.148C1719.68 647.407 1722.41 651.67 1725.13 655.938C1730.05 663.65 1735.02 671.328 1740 679C1742.97 676.211 1745.16 673.427 1747.29 669.957C1747.89 668.974 1748.5 667.991 1749.13 666.978C1749.77 665.933 1750.4 664.889 1751.06 663.812C1752.41 661.633 1753.76 659.455 1755.11 657.277C1755.77 656.207 1756.43 655.137 1757.11 654.035C1760.08 649.263 1763.13 644.546 1766.2 639.84C1768.34 636.576 1770.44 633.302 1772.5 629.988C1772.9 629.347 1773.3 628.706 1773.72 628.045C1774.79 626.319 1775.86 624.588 1776.93 622.855C1779.45 619.373 1782.15 616.926 1786 615C1791.26 614.476 1795.65 614.335 1800.44 616.688C1804.93 620.744 1807.63 623.946 1808.38 630.062C1807.62 637.99 1802.96 644.186 1798.59 650.656C1797.69 651.992 1796.79 653.329 1795.9 654.666C1795.19 655.722 1795.19 655.722 1794.47 656.8C1791.93 660.605 1789.42 664.427 1786.91 668.25C1786.38 669.045 1785.86 669.84 1785.32 670.66C1783.71 673.106 1782.11 675.553 1780.5 678C1778.89 680.446 1777.29 682.892 1775.68 685.335C1774.62 686.942 1773.58 688.555 1772.54 690.172C1770.19 693.809 1767.83 697.294 1765.02 700.598C1755.65 712.02 1756.78 724.228 1757.13 738.438C1757.18 741.964 1757.22 745.489 1757.24 749.016C1757.25 751.194 1757.29 753.373 1757.35 755.55C1757.43 761.929 1756.71 766.698 1753 772C1749.22 775.78 1746.1 776.279 1740.94 776.438C1736.37 776.432 1733.72 775.678 1730 773C1724.98 767.278 1724.98 767.278 1725.04 764.037C1725.11 763.229 1725.18 762.422 1725.26 761.59C1728.14 724.743 1721.89 703.475 1698.82 674.869C1693.43 668.111 1688.76 660.895 1684.11 653.617C1682.78 651.551 1681.44 649.498 1680.09 647.45C1672.47 635.883 1672.47 635.883 1673 628C1674.82 622.126 1677.17 619.497 1682 616C1684.53 614.736 1686.42 614.761 1689.25 614.688Z" fill="white"/>
<path d="M1470 399C1474.64 401.155 1478.07 404.203 1480 409C1480.6 413.507 1480.55 417.988 1480.52 422.529C1480.52 423.91 1480.53 425.29 1480.54 426.67C1480.56 430.408 1480.55 434.145 1480.54 437.883C1480.53 441.8 1480.54 445.717 1480.54 449.634C1480.55 456.211 1480.54 462.788 1480.52 469.365C1480.5 476.962 1480.51 484.559 1480.53 492.156C1480.55 498.686 1480.55 505.216 1480.54 511.746C1480.53 515.643 1480.53 519.54 1480.55 523.436C1480.56 527.101 1480.55 530.764 1480.53 534.429C1480.52 536.41 1480.53 538.391 1480.54 540.372C1480.44 551.187 1480.44 551.187 1476 556C1472.18 559.628 1469.12 560.31 1464 560.5C1458.88 560.31 1455.82 559.628 1452 556C1446.68 550.236 1447.44 543.993 1447.48 536.471C1447.48 535.09 1447.47 533.71 1447.46 532.33C1447.44 528.592 1447.45 524.855 1447.46 521.117C1447.47 517.2 1447.46 513.283 1447.46 509.366C1447.45 502.789 1447.46 496.212 1447.48 489.635C1447.5 482.038 1447.49 474.442 1447.47 466.844C1447.45 460.314 1447.45 453.784 1447.46 447.254C1447.47 443.357 1447.47 439.461 1447.45 435.564C1447.44 431.899 1447.45 428.236 1447.47 424.572C1447.48 422.59 1447.47 420.609 1447.46 418.628C1447.56 407.813 1447.56 407.813 1452 403C1457.27 397.992 1463.11 398.072 1470 399Z" fill="white"/>
</svg>
